<svg width="2539" height="1100" viewBox="0 0 2539 1100" fill="none" xmlns="http://www.w3.org/2000/svg">
<g clip-path="url(#clip0_1_2)">
<path d="M-45 824.207C-2.66667 810.041 124.1 640.7 424.5 731.5C724.9 822.3 1025 955 1106.5 924.5C1188 894 1562.5 653.495 1682 661C1801.5 668.505 2384.5 1033.5 2634.5 997L2427 1294.5L1362.5 1283.5L-45 1218.5V824.207Z" fill="url(#paint0_linear_1_2)" stroke="#40C057" stroke-width="4"/>
<g filter="url(#filter0_d_1_2)">
<circle cx="252.5" cy="703.5" r="13.5" fill="#40C057"/>
</g>
<g filter="url(#filter1_d_1_2)">
<circle cx="1084.5" cy="926.5" r="13.5" fill="#40C057"/>
</g>
<g filter="url(#filter2_d_1_2)">
<circle cx="1675.5" cy="659.5" r="13.5" fill="#40C057"/>
</g>
<path d="M1092.16 953L1085 927L1107 943.545C1104.97 943.37 1100.53 943.02 1096.93 945.121C1093.32 947.222 1092.07 951.424 1092.16 953Z" fill="white" stroke="black"/>
<rect x="1016" y="962" width="208" height="78" rx="4" fill="black" fill-opacity="0.55"/>
<path d="M1045.28 995V994.105L1048.65 990.426C1049.04 989.995 1049.36 989.621 1049.62 989.303C1049.87 988.981 1050.06 988.679 1050.19 988.398C1050.31 988.113 1050.38 987.814 1050.38 987.503C1050.38 987.145 1050.29 986.835 1050.12 986.573C1049.95 986.311 1049.72 986.109 1049.42 985.967C1049.13 985.824 1048.79 985.753 1048.43 985.753C1048.04 985.753 1047.69 985.834 1047.4 985.996C1047.11 986.156 1046.89 986.379 1046.73 986.668C1046.58 986.956 1046.5 987.294 1046.5 987.682H1045.32C1045.32 987.085 1045.46 986.562 1045.74 986.111C1046.01 985.66 1046.39 985.309 1046.86 985.057C1047.34 984.805 1047.87 984.679 1048.47 984.679C1049.06 984.679 1049.59 984.805 1050.05 985.057C1050.51 985.309 1050.87 985.648 1051.14 986.076C1051.4 986.504 1051.53 986.979 1051.53 987.503C1051.53 987.877 1051.46 988.244 1051.32 988.602C1051.19 988.956 1050.96 989.352 1050.63 989.79C1050.3 990.224 1049.85 990.754 1049.26 991.381L1046.97 993.827V993.906H1051.71V995H1045.28ZM1057.08 995.139C1056.33 995.139 1055.69 994.935 1055.17 994.528C1054.64 994.117 1054.24 993.522 1053.96 992.743C1053.68 991.961 1053.54 991.016 1053.54 989.909C1053.54 988.809 1053.68 987.869 1053.96 987.09C1054.24 986.308 1054.65 985.711 1055.17 985.3C1055.7 984.886 1056.34 984.679 1057.08 984.679C1057.82 984.679 1058.46 984.886 1058.99 985.3C1059.52 985.711 1059.92 986.308 1060.2 987.09C1060.48 987.869 1060.62 988.809 1060.62 989.909C1060.62 991.016 1060.48 991.961 1060.2 992.743C1059.93 993.522 1059.52 994.117 1059 994.528C1058.47 994.935 1057.83 995.139 1057.08 995.139ZM1057.08 994.045C1057.82 994.045 1058.4 993.687 1058.81 992.972C1059.22 992.256 1059.43 991.235 1059.43 989.909C1059.43 989.027 1059.33 988.277 1059.15 987.657C1058.96 987.037 1058.69 986.565 1058.34 986.24C1057.99 985.915 1057.57 985.753 1057.08 985.753C1056.35 985.753 1055.77 986.116 1055.36 986.842C1054.94 987.564 1054.74 988.587 1054.74 989.909C1054.74 990.791 1054.83 991.54 1055.01 992.156C1055.2 992.773 1055.47 993.242 1055.81 993.563C1056.17 993.885 1056.59 994.045 1057.08 994.045ZM1062.51 995V994.105L1065.87 990.426C1066.27 989.995 1066.59 989.621 1066.85 989.303C1067.1 988.981 1067.29 988.679 1067.41 988.398C1067.54 988.113 1067.6 987.814 1067.6 987.503C1067.6 987.145 1067.52 986.835 1067.34 986.573C1067.17 986.311 1066.94 986.109 1066.65 985.967C1066.35 985.824 1066.02 985.753 1065.65 985.753C1065.26 985.753 1064.92 985.834 1064.63 985.996C1064.34 986.156 1064.12 986.379 1063.96 986.668C1063.8 986.956 1063.72 987.294 1063.72 987.682H1062.55C1062.55 987.085 1062.69 986.562 1062.96 986.111C1063.24 985.66 1063.61 985.309 1064.09 985.057C1064.56 984.805 1065.1 984.679 1065.69 984.679C1066.29 984.679 1066.82 984.805 1067.28 985.057C1067.74 985.309 1068.1 985.648 1068.36 986.076C1068.62 986.504 1068.76 986.979 1068.76 987.503C1068.76 987.877 1068.69 988.244 1068.55 988.602C1068.42 988.956 1068.19 989.352 1067.86 989.79C1067.53 990.224 1067.07 990.754 1066.49 991.381L1064.2 993.827V993.906H1068.93V995H1062.51ZM1070.99 995V994.105L1074.35 990.426C1074.74 989.995 1075.07 989.621 1075.32 989.303C1075.58 988.981 1075.77 988.679 1075.89 988.398C1076.02 988.113 1076.08 987.814 1076.08 987.503C1076.08 987.145 1075.99 986.835 1075.82 986.573C1075.65 986.311 1075.42 986.109 1075.12 985.967C1074.83 985.824 1074.5 985.753 1074.13 985.753C1073.74 985.753 1073.4 985.834 1073.11 985.996C1072.82 986.156 1072.59 986.379 1072.43 986.668C1072.28 986.956 1072.2 987.294 1072.2 987.682H1071.03C1071.03 987.085 1071.16 986.562 1071.44 986.111C1071.72 985.66 1072.09 985.309 1072.56 985.057C1073.04 984.805 1073.58 984.679 1074.17 984.679C1074.77 984.679 1075.29 984.805 1075.76 985.057C1076.22 985.309 1076.58 985.648 1076.84 986.076C1077.1 986.504 1077.23 986.979 1077.23 987.503C1077.23 987.877 1077.16 988.244 1077.03 988.602C1076.9 988.956 1076.66 989.352 1076.33 989.79C1076 990.224 1075.55 990.754 1074.96 991.381L1072.68 993.827V993.906H1077.41V995H1070.99ZM1091.77 988H1090.54C1090.47 987.645 1090.34 987.334 1090.16 987.065C1089.98 986.797 1089.76 986.571 1089.5 986.389C1089.25 986.204 1088.96 986.064 1088.65 985.972C1088.34 985.879 1088.02 985.832 1087.68 985.832C1087.06 985.832 1086.5 985.988 1086 986.3C1085.5 986.611 1085.11 987.07 1084.81 987.677C1084.52 988.283 1084.38 989.027 1084.38 989.909C1084.38 990.791 1084.52 991.535 1084.81 992.141C1085.11 992.748 1085.5 993.207 1086 993.518C1086.5 993.83 1087.06 993.986 1087.68 993.986C1088.02 993.986 1088.34 993.939 1088.65 993.847C1088.96 993.754 1089.25 993.616 1089.5 993.434C1089.76 993.248 1089.98 993.021 1090.16 992.753C1090.34 992.481 1090.47 992.17 1090.54 991.818H1091.77C1091.68 992.339 1091.51 992.804 1091.27 993.215C1091.02 993.626 1090.72 993.976 1090.35 994.264C1089.99 994.549 1089.58 994.766 1089.12 994.915C1088.67 995.065 1088.19 995.139 1087.68 995.139C1086.81 995.139 1086.04 994.927 1085.36 994.503C1084.68 994.079 1084.15 993.475 1083.76 992.693C1083.38 991.911 1083.18 990.983 1083.18 989.909C1083.18 988.835 1083.38 987.907 1083.76 987.125C1084.15 986.343 1084.68 985.74 1085.36 985.315C1086.04 984.891 1086.81 984.679 1087.68 984.679C1088.19 984.679 1088.67 984.754 1089.12 984.903C1089.58 985.052 1089.99 985.271 1090.35 985.559C1090.72 985.844 1091.02 986.192 1091.27 986.603C1091.51 987.011 1091.68 987.476 1091.77 988ZM1093.77 995V984.818H1097.21C1098 984.818 1098.65 984.954 1099.17 985.226C1099.68 985.494 1100.05 985.864 1100.3 986.335C1100.54 986.805 1100.67 987.34 1100.67 987.94C1100.67 988.54 1100.54 989.072 1100.3 989.536C1100.05 990 1099.68 990.365 1099.17 990.63C1098.66 990.892 1098.02 991.023 1097.23 991.023H1094.44V989.909H1097.19C1097.73 989.909 1098.17 989.83 1098.5 989.67C1098.83 989.511 1099.08 989.286 1099.22 988.994C1099.38 988.699 1099.45 988.348 1099.45 987.94C1099.45 987.533 1099.38 987.176 1099.22 986.871C1099.07 986.567 1098.83 986.331 1098.49 986.165C1098.16 985.996 1097.72 985.912 1097.17 985.912H1095V995H1093.77ZM1098.56 990.426L1101.06 995H1099.63L1097.17 990.426H1098.56ZM1102.72 995V984.818H1108.83V985.912H1103.95V989.352H1108.37V990.446H1103.95V995H1102.72ZM1114.7 995V994.105L1118.06 990.426C1118.45 989.995 1118.78 989.621 1119.03 989.303C1119.29 988.981 1119.48 988.679 1119.6 988.398C1119.72 988.113 1119.79 987.814 1119.79 987.503C1119.79 987.145 1119.7 986.835 1119.53 986.573C1119.36 986.311 1119.13 986.109 1118.83 985.967C1118.54 985.824 1118.21 985.753 1117.84 985.753C1117.45 985.753 1117.11 985.834 1116.81 985.996C1116.53 986.156 1116.3 986.379 1116.14 986.668C1115.99 986.956 1115.91 987.294 1115.91 987.682H1114.74C1114.74 987.085 1114.87 986.562 1115.15 986.111C1115.42 985.66 1115.8 985.309 1116.27 985.057C1116.75 984.805 1117.29 984.679 1117.88 984.679C1118.47 984.679 1119 984.805 1119.46 985.057C1119.93 985.309 1120.29 985.648 1120.55 986.076C1120.81 986.504 1120.94 986.979 1120.94 987.503C1120.94 987.877 1120.87 988.244 1120.74 988.602C1120.6 988.956 1120.37 989.352 1120.04 989.79C1119.71 990.224 1119.26 990.754 1118.67 991.381L1116.39 993.827V993.906H1121.12V995H1114.7ZM1126.35 995.139C1125.77 995.139 1125.25 995.023 1124.78 994.791C1124.31 994.559 1123.94 994.241 1123.66 993.837C1123.37 993.432 1123.22 992.972 1123.19 992.455H1124.39C1124.43 992.915 1124.64 993.296 1125.01 993.598C1125.39 993.896 1125.83 994.045 1126.35 994.045C1126.77 994.045 1127.14 993.948 1127.47 993.752C1127.8 993.557 1128.05 993.288 1128.24 992.947C1128.43 992.602 1128.52 992.213 1128.52 991.778C1128.52 991.334 1128.42 990.938 1128.23 990.59C1128.04 990.239 1127.77 989.962 1127.43 989.76C1127.1 989.558 1126.71 989.455 1126.28 989.452C1125.96 989.448 1125.64 989.496 1125.32 989.596C1124.99 989.692 1124.72 989.816 1124.51 989.969L1123.35 989.83L1123.97 984.818H1129.26V985.912H1125L1124.64 988.915H1124.7C1124.91 988.749 1125.18 988.612 1125.49 988.502C1125.8 988.393 1126.13 988.338 1126.47 988.338C1127.1 988.338 1127.65 988.487 1128.14 988.786C1128.63 989.08 1129.01 989.485 1129.29 989.999C1129.57 990.512 1129.72 991.099 1129.72 991.759C1129.72 992.408 1129.57 992.988 1129.28 993.499C1128.99 994.006 1128.59 994.407 1128.09 994.702C1127.58 994.993 1127 995.139 1126.35 995.139ZM1135.01 995.139C1134.26 995.139 1133.62 994.935 1133.1 994.528C1132.57 994.117 1132.17 993.522 1131.89 992.743C1131.61 991.961 1131.47 991.016 1131.47 989.909C1131.47 988.809 1131.61 987.869 1131.89 987.09C1132.17 986.308 1132.58 985.711 1133.1 985.3C1133.63 984.886 1134.27 984.679 1135.01 984.679C1135.75 984.679 1136.39 984.886 1136.92 985.3C1137.45 985.711 1137.85 986.308 1138.13 987.09C1138.41 987.869 1138.55 988.809 1138.55 989.909C1138.55 991.016 1138.41 991.961 1138.13 992.743C1137.86 993.522 1137.45 994.117 1136.93 994.528C1136.4 994.935 1135.76 995.139 1135.01 995.139ZM1135.01 994.045C1135.75 994.045 1136.33 993.687 1136.74 992.972C1137.15 992.256 1137.36 991.235 1137.36 989.909C1137.36 989.027 1137.26 988.277 1137.07 987.657C1136.89 987.037 1136.62 986.565 1136.27 986.24C1135.92 985.915 1135.5 985.753 1135.01 985.753C1134.28 985.753 1133.7 986.116 1133.29 986.842C1132.87 987.564 1132.67 988.587 1132.67 989.909C1132.67 990.791 1132.76 991.54 1132.94 992.156C1133.13 992.773 1133.4 993.242 1133.74 993.563C1134.1 993.885 1134.52 994.045 1135.01 994.045ZM1140.62 995V984.818H1144.06C1144.86 984.818 1145.51 984.954 1146.02 985.226C1146.53 985.494 1146.91 985.864 1147.15 986.335C1147.4 986.805 1147.52 987.34 1147.52 987.94C1147.52 988.54 1147.4 989.072 1147.15 989.536C1146.91 990 1146.53 990.365 1146.02 990.63C1145.52 990.892 1144.87 991.023 1144.08 991.023H1141.3V989.909H1144.04C1144.58 989.909 1145.02 989.83 1145.35 989.67C1145.69 989.511 1145.93 989.286 1146.08 988.994C1146.23 988.699 1146.31 988.348 1146.31 987.94C1146.31 987.533 1146.23 987.176 1146.08 986.871C1145.93 986.567 1145.68 986.331 1145.35 986.165C1145.01 985.996 1144.57 985.912 1144.02 985.912H1141.85V995H1140.62ZM1145.41 990.426L1147.92 995H1146.49L1144.02 990.426H1145.41ZM1153.51 995V984.818H1154.75V989.352H1160.17V984.818H1161.41V995H1160.17V990.446H1154.75V995H1153.51ZM1166.82 995.159C1166.13 995.159 1165.52 994.995 1165 994.667C1164.49 994.339 1164.08 993.88 1163.79 993.29C1163.5 992.7 1163.36 992.01 1163.36 991.222C1163.36 990.426 1163.5 989.732 1163.79 989.138C1164.08 988.545 1164.49 988.085 1165 987.756C1165.52 987.428 1166.13 987.264 1166.82 987.264C1167.51 987.264 1168.11 987.428 1168.63 987.756C1169.15 988.085 1169.55 988.545 1169.84 989.138C1170.13 989.732 1170.28 990.426 1170.28 991.222C1170.28 992.01 1170.13 992.7 1169.84 993.29C1169.55 993.88 1169.15 994.339 1168.63 994.667C1168.11 994.995 1167.51 995.159 1166.82 995.159ZM1166.82 994.105C1167.34 994.105 1167.77 993.971 1168.11 993.702C1168.45 993.434 1168.7 993.081 1168.86 992.643C1169.02 992.206 1169.11 991.732 1169.11 991.222C1169.11 990.711 1169.02 990.236 1168.86 989.795C1168.7 989.354 1168.45 988.998 1168.11 988.726C1167.77 988.454 1167.34 988.318 1166.82 988.318C1166.3 988.318 1165.86 988.454 1165.53 988.726C1165.19 988.998 1164.94 989.354 1164.78 989.795C1164.61 990.236 1164.53 990.711 1164.53 991.222C1164.53 991.732 1164.61 992.206 1164.78 992.643C1164.94 993.081 1165.19 993.434 1165.53 993.702C1165.86 993.971 1166.3 994.105 1166.82 994.105ZM1173.24 990.406V995H1172.07V987.364H1173.2V988.557H1173.3C1173.48 988.169 1173.75 987.857 1174.12 987.622C1174.48 987.384 1174.95 987.264 1175.53 987.264C1176.05 987.264 1176.5 987.37 1176.89 987.582C1177.28 987.791 1177.58 988.109 1177.79 988.537C1178.01 988.961 1178.12 989.498 1178.12 990.148V995H1176.94V990.227C1176.94 989.627 1176.79 989.16 1176.47 988.825C1176.16 988.487 1175.74 988.318 1175.19 988.318C1174.82 988.318 1174.48 988.399 1174.19 988.562C1173.9 988.724 1173.67 988.961 1173.5 989.273C1173.33 989.584 1173.24 989.962 1173.24 990.406ZM1183.14 995.159C1182.51 995.159 1181.94 994.998 1181.46 994.677C1180.97 994.352 1180.59 993.895 1180.31 993.305C1180.04 992.711 1179.9 992.01 1179.9 991.202C1179.9 990.4 1180.04 989.704 1180.31 989.114C1180.59 988.524 1180.97 988.068 1181.46 987.746C1181.95 987.425 1182.52 987.264 1183.16 987.264C1183.66 987.264 1184.05 987.347 1184.34 987.513C1184.63 987.675 1184.85 987.861 1185.01 988.07C1185.16 988.275 1185.28 988.444 1185.37 988.577H1185.47V984.818H1186.64V995H1185.51V993.827H1185.37C1185.28 993.966 1185.16 994.142 1185 994.354C1184.84 994.562 1184.62 994.75 1184.32 994.915C1184.03 995.078 1183.63 995.159 1183.14 995.159ZM1183.3 994.105C1183.77 994.105 1184.17 993.982 1184.5 993.737C1184.82 993.489 1185.07 993.146 1185.24 992.708C1185.41 992.267 1185.49 991.759 1185.49 991.182C1185.49 990.612 1185.41 990.113 1185.24 989.685C1185.08 989.254 1184.83 988.92 1184.51 988.681C1184.18 988.439 1183.78 988.318 1183.3 988.318C1182.8 988.318 1182.39 988.446 1182.06 988.701C1181.73 988.953 1181.48 989.296 1181.32 989.73C1181.16 990.161 1181.07 990.645 1181.07 991.182C1181.07 991.725 1181.16 992.219 1181.32 992.663C1181.49 993.104 1181.74 993.455 1182.07 993.717C1182.4 993.976 1182.81 994.105 1183.3 994.105ZM1191.2 995.179C1190.72 995.179 1190.28 995.088 1189.88 994.906C1189.49 994.72 1189.18 994.453 1188.94 994.105C1188.71 993.754 1188.6 993.33 1188.6 992.832C1188.6 992.395 1188.68 992.04 1188.86 991.768C1189.03 991.493 1189.26 991.278 1189.55 991.122C1189.83 990.966 1190.15 990.85 1190.5 990.774C1190.85 990.695 1191.21 990.632 1191.56 990.585C1192.02 990.526 1192.4 990.481 1192.69 990.451C1192.98 990.418 1193.19 990.363 1193.32 990.287C1193.46 990.211 1193.53 990.078 1193.53 989.889V989.849C1193.53 989.359 1193.39 988.978 1193.13 988.706C1192.86 988.434 1192.46 988.298 1191.92 988.298C1191.36 988.298 1190.92 988.421 1190.6 988.666C1190.28 988.911 1190.06 989.173 1189.93 989.452L1188.82 989.054C1189.01 988.59 1189.28 988.229 1189.61 987.97C1189.95 987.708 1190.31 987.526 1190.7 987.423C1191.1 987.317 1191.49 987.264 1191.88 987.264C1192.12 987.264 1192.41 987.294 1192.72 987.354C1193.04 987.41 1193.35 987.528 1193.65 987.707C1193.95 987.886 1194.2 988.156 1194.4 988.517C1194.6 988.878 1194.7 989.362 1194.7 989.969V995H1193.53V993.966H1193.47C1193.39 994.132 1193.26 994.309 1193.07 994.498C1192.89 994.687 1192.64 994.848 1192.33 994.98C1192.02 995.113 1191.65 995.179 1191.2 995.179ZM1191.38 994.125C1191.84 994.125 1192.24 994.034 1192.55 993.852C1192.88 993.669 1193.12 993.434 1193.28 993.146C1193.45 992.857 1193.53 992.554 1193.53 992.236V991.162C1193.48 991.222 1193.37 991.276 1193.2 991.326C1193.03 991.372 1192.84 991.414 1192.62 991.45C1192.41 991.483 1192.2 991.513 1191.99 991.54C1191.79 991.563 1191.63 991.583 1191.5 991.599C1191.2 991.639 1190.91 991.704 1190.65 991.793C1190.38 991.879 1190.17 992.01 1190.01 992.186C1189.85 992.358 1189.77 992.594 1189.77 992.892C1189.77 993.3 1189.92 993.608 1190.22 993.817C1190.53 994.022 1190.91 994.125 1191.38 994.125ZM1070.26 1016H1068.97L1072.71 1005.82H1073.98L1077.72 1016H1076.43L1073.39 1007.43H1073.31L1070.26 1016ZM1070.74 1012.02H1075.95V1013.12H1070.74V1012.02ZM1084.44 1008.36L1081.61 1016H1080.42L1077.6 1008.36H1078.87L1080.98 1014.45H1081.06L1083.16 1008.36H1084.44ZM1088.79 1019.02C1088.23 1019.02 1087.74 1018.95 1087.33 1018.8C1086.92 1018.66 1086.58 1018.47 1086.31 1018.24C1086.04 1018.01 1085.83 1017.76 1085.67 1017.49L1086.61 1016.84C1086.71 1016.97 1086.85 1017.13 1087.01 1017.31C1087.17 1017.49 1087.39 1017.65 1087.68 1017.78C1087.96 1017.92 1088.33 1017.99 1088.79 1017.99C1089.41 1017.99 1089.92 1017.84 1090.32 1017.54C1090.72 1017.24 1090.92 1016.78 1090.92 1016.14V1014.59H1090.82C1090.74 1014.73 1090.61 1014.9 1090.45 1015.11C1090.3 1015.31 1090.07 1015.49 1089.78 1015.65C1089.49 1015.8 1089.09 1015.88 1088.6 1015.88C1087.98 1015.88 1087.43 1015.73 1086.93 1015.44C1086.45 1015.15 1086.06 1014.73 1085.78 1014.17C1085.49 1013.61 1085.35 1012.94 1085.35 1012.14C1085.35 1011.36 1085.49 1010.68 1085.77 1010.1C1086.04 1009.52 1086.42 1009.06 1086.91 1008.75C1087.41 1008.42 1087.97 1008.26 1088.61 1008.26C1089.11 1008.26 1089.51 1008.35 1089.8 1008.51C1090.09 1008.68 1090.32 1008.86 1090.47 1009.07C1090.63 1009.28 1090.76 1009.44 1090.84 1009.58H1090.96V1008.36H1092.1V1016.22C1092.1 1016.88 1091.95 1017.41 1091.65 1017.82C1091.35 1018.23 1090.95 1018.54 1090.45 1018.73C1089.96 1018.92 1089.4 1019.02 1088.79 1019.02ZM1088.75 1014.83C1089.22 1014.83 1089.62 1014.72 1089.95 1014.5C1090.27 1014.29 1090.52 1013.98 1090.69 1013.57C1090.86 1013.17 1090.94 1012.69 1090.94 1012.12C1090.94 1011.57 1090.86 1011.09 1090.69 1010.67C1090.53 1010.24 1090.28 1009.91 1089.96 1009.68C1089.63 1009.44 1089.23 1009.32 1088.75 1009.32C1088.26 1009.32 1087.84 1009.44 1087.51 1009.7C1087.18 1009.95 1086.94 1010.29 1086.77 1010.71C1086.61 1011.13 1086.53 1011.61 1086.53 1012.12C1086.53 1012.65 1086.61 1013.12 1086.78 1013.53C1086.94 1013.93 1087.19 1014.25 1087.52 1014.48C1087.85 1014.71 1088.26 1014.83 1088.75 1014.83ZM1103.91 1008.36C1103.85 1007.86 1103.61 1007.47 1103.18 1007.19C1102.76 1006.91 1102.24 1006.77 1101.62 1006.77C1101.17 1006.77 1100.78 1006.85 1100.44 1006.99C1100.1 1007.14 1099.84 1007.34 1099.65 1007.59C1099.47 1007.85 1099.37 1008.14 1099.37 1008.46C1099.37 1008.73 1099.44 1008.97 1099.57 1009.16C1099.7 1009.36 1099.87 1009.52 1100.07 1009.65C1100.28 1009.77 1100.5 1009.88 1100.72 1009.96C1100.95 1010.04 1101.15 1010.1 1101.34 1010.15L1102.38 1010.43C1102.64 1010.5 1102.94 1010.6 1103.26 1010.72C1103.59 1010.84 1103.9 1011.01 1104.2 1011.22C1104.5 1011.43 1104.75 1011.7 1104.95 1012.03C1105.14 1012.36 1105.24 1012.76 1105.24 1013.24C1105.24 1013.79 1105.1 1014.28 1104.81 1014.73C1104.52 1015.17 1104.1 1015.52 1103.55 1015.79C1103.01 1016.05 1102.34 1016.18 1101.56 1016.18C1100.83 1016.18 1100.2 1016.06 1099.67 1015.83C1099.14 1015.59 1098.72 1015.26 1098.41 1014.84C1098.11 1014.42 1097.94 1013.93 1097.9 1013.38H1099.17C1099.21 1013.76 1099.34 1014.08 1099.56 1014.33C1099.79 1014.58 1100.08 1014.76 1100.43 1014.89C1100.78 1015.01 1101.16 1015.07 1101.56 1015.07C1102.03 1015.07 1102.45 1014.99 1102.83 1014.84C1103.2 1014.68 1103.5 1014.47 1103.72 1014.19C1103.94 1013.91 1104.05 1013.59 1104.05 1013.22C1104.05 1012.88 1103.95 1012.6 1103.76 1012.39C1103.57 1012.18 1103.33 1012.01 1103.02 1011.87C1102.71 1011.74 1102.38 1011.62 1102.02 1011.53L1100.77 1011.17C1099.97 1010.94 1099.34 1010.61 1098.88 1010.19C1098.41 1009.76 1098.18 1009.21 1098.18 1008.52C1098.18 1007.95 1098.33 1007.46 1098.64 1007.03C1098.95 1006.6 1099.37 1006.27 1099.9 1006.04C1100.42 1005.8 1101.01 1005.68 1101.66 1005.68C1102.32 1005.68 1102.9 1005.8 1103.41 1006.03C1103.92 1006.26 1104.33 1006.58 1104.62 1006.99C1104.93 1007.39 1105.08 1007.85 1105.1 1008.36H1103.91ZM1107.11 1018.86V1008.36H1108.24V1009.58H1108.38C1108.47 1009.44 1108.59 1009.28 1108.74 1009.07C1108.89 1008.86 1109.12 1008.68 1109.4 1008.51C1109.7 1008.35 1110.09 1008.26 1110.59 1008.26C1111.23 1008.26 1111.8 1008.42 1112.29 1008.75C1112.78 1009.07 1113.16 1009.52 1113.44 1010.11C1113.71 1010.7 1113.85 1011.4 1113.85 1012.2C1113.85 1013.01 1113.71 1013.71 1113.44 1014.3C1113.16 1014.89 1112.78 1015.35 1112.29 1015.68C1111.81 1016 1111.24 1016.16 1110.61 1016.16C1110.12 1016.16 1109.72 1016.08 1109.43 1015.92C1109.13 1015.75 1108.91 1015.56 1108.75 1015.35C1108.59 1015.14 1108.47 1014.97 1108.38 1014.83H1108.28V1018.86H1107.11ZM1108.26 1012.18C1108.26 1012.76 1108.35 1013.27 1108.52 1013.71C1108.68 1014.15 1108.93 1014.49 1109.26 1014.74C1109.58 1014.98 1109.98 1015.11 1110.45 1015.11C1110.94 1015.11 1111.35 1014.98 1111.68 1014.72C1112.01 1014.46 1112.26 1014.1 1112.42 1013.66C1112.59 1013.22 1112.68 1012.73 1112.68 1012.18C1112.68 1011.64 1112.59 1011.16 1112.43 1010.73C1112.27 1010.3 1112.02 1009.95 1111.69 1009.7C1111.36 1009.45 1110.95 1009.32 1110.45 1009.32C1109.97 1009.32 1109.57 1009.44 1109.25 1009.68C1108.92 1009.92 1108.68 1010.25 1108.51 1010.69C1108.34 1011.11 1108.26 1011.61 1108.26 1012.18ZM1118.84 1016.16C1118.11 1016.16 1117.47 1016 1116.94 1015.67C1116.41 1015.34 1116 1014.89 1115.71 1014.3C1115.42 1013.71 1115.28 1013.02 1115.28 1012.24C1115.28 1011.46 1115.42 1010.77 1115.71 1010.17C1116 1009.57 1116.4 1009.11 1116.91 1008.77C1117.43 1008.43 1118.03 1008.26 1118.72 1008.26C1119.12 1008.26 1119.51 1008.33 1119.9 1008.46C1120.29 1008.6 1120.64 1008.81 1120.96 1009.11C1121.28 1009.4 1121.53 1009.8 1121.72 1010.28C1121.91 1010.77 1122 1011.37 1122 1012.08V1012.58H1116.12V1011.57H1120.81C1120.81 1011.13 1120.72 1010.75 1120.55 1010.41C1120.38 1010.07 1120.14 1009.81 1119.83 1009.61C1119.51 1009.42 1119.15 1009.32 1118.72 1009.32C1118.25 1009.32 1117.85 1009.43 1117.51 1009.67C1117.17 1009.89 1116.91 1010.19 1116.73 1010.56C1116.55 1010.93 1116.45 1011.32 1116.45 1011.74V1012.42C1116.45 1013 1116.55 1013.49 1116.75 1013.89C1116.96 1014.28 1117.24 1014.59 1117.59 1014.8C1117.95 1015 1118.37 1015.11 1118.84 1015.11C1119.15 1015.11 1119.43 1015.06 1119.68 1014.98C1119.93 1014.89 1120.15 1014.75 1120.33 1014.58C1120.51 1014.4 1120.65 1014.18 1120.75 1013.91L1121.88 1014.23C1121.76 1014.61 1121.56 1014.95 1121.28 1015.24C1121 1015.53 1120.65 1015.76 1120.24 1015.92C1119.82 1016.08 1119.36 1016.16 1118.84 1016.16ZM1126.99 1016.16C1126.25 1016.16 1125.62 1016 1125.09 1015.67C1124.56 1015.34 1124.15 1014.89 1123.86 1014.3C1123.57 1013.71 1123.43 1013.02 1123.43 1012.24C1123.43 1011.46 1123.57 1010.77 1123.86 1010.17C1124.15 1009.57 1124.55 1009.11 1125.06 1008.77C1125.58 1008.43 1126.18 1008.26 1126.87 1008.26C1127.27 1008.26 1127.66 1008.33 1128.05 1008.46C1128.44 1008.6 1128.79 1008.81 1129.11 1009.11C1129.43 1009.4 1129.68 1009.8 1129.87 1010.28C1130.06 1010.77 1130.15 1011.37 1130.15 1012.08V1012.58H1124.27V1011.57H1128.96C1128.96 1011.13 1128.87 1010.75 1128.7 1010.41C1128.53 1010.07 1128.29 1009.81 1127.97 1009.61C1127.66 1009.42 1127.29 1009.32 1126.87 1009.32C1126.4 1009.32 1126 1009.43 1125.66 1009.67C1125.32 1009.89 1125.06 1010.19 1124.88 1010.56C1124.69 1010.93 1124.6 1011.32 1124.6 1011.74V1012.42C1124.6 1013 1124.7 1013.49 1124.9 1013.89C1125.1 1014.28 1125.38 1014.59 1125.74 1014.8C1126.1 1015 1126.52 1015.11 1126.99 1015.11C1127.3 1015.11 1127.58 1015.06 1127.82 1014.98C1128.08 1014.89 1128.29 1014.75 1128.48 1014.58C1128.66 1014.4 1128.8 1014.18 1128.9 1013.91L1130.03 1014.23C1129.91 1014.61 1129.71 1014.95 1129.43 1015.24C1129.15 1015.53 1128.8 1015.76 1128.39 1015.92C1127.97 1016.08 1127.51 1016.16 1126.99 1016.16ZM1134.82 1016.16C1134.18 1016.16 1133.62 1016 1133.13 1015.68C1132.65 1015.35 1132.27 1014.89 1131.99 1014.3C1131.72 1013.71 1131.58 1013.01 1131.58 1012.2C1131.58 1011.4 1131.72 1010.7 1131.99 1010.11C1132.27 1009.52 1132.65 1009.07 1133.14 1008.75C1133.63 1008.42 1134.2 1008.26 1134.84 1008.26C1135.34 1008.26 1135.73 1008.35 1136.02 1008.51C1136.31 1008.68 1136.53 1008.86 1136.68 1009.07C1136.84 1009.28 1136.96 1009.44 1137.05 1009.58H1137.15V1005.82H1138.32V1016H1137.19V1014.83H1137.05C1136.96 1014.97 1136.84 1015.14 1136.68 1015.35C1136.52 1015.56 1136.29 1015.75 1136 1015.92C1135.7 1016.08 1135.31 1016.16 1134.82 1016.16ZM1134.98 1015.11C1135.45 1015.11 1135.85 1014.98 1136.17 1014.74C1136.5 1014.49 1136.74 1014.15 1136.91 1013.71C1137.08 1013.27 1137.17 1012.76 1137.17 1012.18C1137.17 1011.61 1137.08 1011.11 1136.92 1010.69C1136.75 1010.25 1136.51 1009.92 1136.18 1009.68C1135.86 1009.44 1135.46 1009.32 1134.98 1009.32C1134.48 1009.32 1134.07 1009.45 1133.74 1009.7C1133.41 1009.95 1133.16 1010.3 1133 1010.73C1132.83 1011.16 1132.75 1011.64 1132.75 1012.18C1132.75 1012.73 1132.83 1013.22 1133 1013.66C1133.17 1014.1 1133.42 1014.46 1133.75 1014.72C1134.08 1014.98 1134.49 1015.11 1134.98 1015.11ZM1141.49 1016.08C1141.24 1016.08 1141.03 1015.99 1140.86 1015.82C1140.68 1015.64 1140.59 1015.43 1140.59 1015.18C1140.59 1014.94 1140.68 1014.73 1140.86 1014.55C1141.03 1014.38 1141.24 1014.29 1141.49 1014.29C1141.73 1014.29 1141.94 1014.38 1142.12 1014.55C1142.29 1014.73 1142.38 1014.94 1142.38 1015.18C1142.38 1015.35 1142.34 1015.5 1142.26 1015.63C1142.18 1015.77 1142.07 1015.88 1141.93 1015.96C1141.8 1016.04 1141.65 1016.08 1141.49 1016.08ZM1141.49 1010.41C1141.24 1010.41 1141.03 1010.32 1140.86 1010.15C1140.68 1009.97 1140.59 1009.76 1140.59 1009.52C1140.59 1009.27 1140.68 1009.06 1140.86 1008.89C1141.03 1008.71 1141.24 1008.62 1141.49 1008.62C1141.73 1008.62 1141.94 1008.71 1142.12 1008.89C1142.29 1009.06 1142.38 1009.27 1142.38 1009.52C1142.38 1009.68 1142.34 1009.83 1142.26 1009.96C1142.18 1010.1 1142.07 1010.21 1141.93 1010.29C1141.8 1010.37 1141.65 1010.41 1141.49 1010.41ZM1151.98 1005.82V1016H1150.75V1007.11H1150.69L1148.21 1008.76V1007.51L1150.75 1005.82H1151.98ZM1158.15 1005.68C1158.57 1005.68 1158.99 1005.76 1159.41 1005.92C1159.82 1006.07 1160.21 1006.33 1160.55 1006.69C1160.89 1007.05 1161.17 1007.54 1161.38 1008.16C1161.59 1008.78 1161.69 1009.56 1161.69 1010.49C1161.69 1011.4 1161.61 1012.2 1161.44 1012.9C1161.27 1013.6 1161.02 1014.19 1160.7 1014.67C1160.38 1015.15 1159.99 1015.52 1159.54 1015.77C1159.08 1016.01 1158.57 1016.14 1157.99 1016.14C1157.42 1016.14 1156.92 1016.03 1156.47 1015.8C1156.02 1015.57 1155.66 1015.26 1155.37 1014.85C1155.09 1014.44 1154.91 1013.97 1154.83 1013.43H1156.05C1156.16 1013.9 1156.37 1014.29 1156.7 1014.59C1157.03 1014.89 1157.46 1015.05 1157.99 1015.05C1158.78 1015.05 1159.4 1014.7 1159.85 1014.02C1160.31 1013.33 1160.54 1012.36 1160.54 1011.11H1160.46C1160.28 1011.39 1160.05 1011.63 1159.8 1011.83C1159.54 1012.03 1159.26 1012.19 1158.95 1012.3C1158.64 1012.41 1158.31 1012.46 1157.95 1012.46C1157.37 1012.46 1156.84 1012.32 1156.35 1012.03C1155.87 1011.74 1155.48 1011.34 1155.19 1010.83C1154.9 1010.32 1154.75 1009.74 1154.75 1009.08C1154.75 1008.46 1154.89 1007.89 1155.17 1007.37C1155.45 1006.85 1155.85 1006.43 1156.35 1006.13C1156.86 1005.82 1157.46 1005.67 1158.15 1005.68ZM1158.15 1006.77C1157.74 1006.77 1157.36 1006.88 1157.03 1007.09C1156.69 1007.29 1156.43 1007.57 1156.23 1007.92C1156.04 1008.27 1155.95 1008.66 1155.95 1009.08C1155.95 1009.5 1156.04 1009.89 1156.22 1010.24C1156.41 1010.58 1156.67 1010.86 1157 1011.06C1157.32 1011.27 1157.7 1011.37 1158.11 1011.37C1158.43 1011.37 1158.72 1011.31 1158.99 1011.18C1159.27 1011.06 1159.5 1010.89 1159.7 1010.67C1159.91 1010.45 1160.07 1010.2 1160.19 1009.93C1160.3 1009.65 1160.36 1009.36 1160.36 1009.06C1160.36 1008.66 1160.27 1008.29 1160.07 1007.94C1159.88 1007.59 1159.62 1007.31 1159.29 1007.1C1158.96 1006.88 1158.58 1006.77 1158.15 1006.77ZM1164.17 1016.08C1163.92 1016.08 1163.71 1015.99 1163.54 1015.82C1163.36 1015.64 1163.27 1015.43 1163.27 1015.18C1163.27 1014.94 1163.36 1014.73 1163.54 1014.55C1163.71 1014.38 1163.92 1014.29 1164.17 1014.29C1164.41 1014.29 1164.62 1014.38 1164.8 1014.55C1164.98 1014.73 1165.06 1014.94 1165.06 1015.18C1165.06 1015.35 1165.02 1015.5 1164.94 1015.63C1164.86 1015.77 1164.75 1015.88 1164.62 1015.96C1164.48 1016.04 1164.33 1016.08 1164.17 1016.08ZM1169.51 1005.82V1016H1168.28V1007.11H1168.22L1165.73 1008.76V1007.51L1168.28 1005.82H1169.51Z" fill="white"/>
</g>
<defs>
<filter id="filter0_d_1_2" x="235" y="690" width="35" height="35" filterUnits="userSpaceOnUse" color-interpolation-filters="sRGB">
<feFlood flood-opacity="0" result="BackgroundImageFix"/>
<feColorMatrix in="SourceAlpha" type="matrix" values="0 0 0 0 0 0 0 0 0 0 0 0 0 0 0 0 0 0 127 0" result="hardAlpha"/>
<feOffset dy="4"/>
<feGaussianBlur stdDeviation="2"/>
<feComposite in2="hardAlpha" operator="out"/>
<feColorMatrix type="matrix" values="0 0 0 0 0 0 0 0 0 0 0 0 0 0 0 0 0 0 0.25 0"/>
<feBlend mode="normal" in2="BackgroundImageFix" result="effect1_dropShadow_1_2"/>
<feBlend mode="normal" in="SourceGraphic" in2="effect1_dropShadow_1_2" result="shape"/>
</filter>
<filter id="filter1_d_1_2" x="1067" y="913" width="35" height="35" filterUnits="userSpaceOnUse" color-interpolation-filters="sRGB">
<feFlood flood-opacity="0" result="BackgroundImageFix"/>
<feColorMatrix in="SourceAlpha" type="matrix" values="0 0 0 0 0 0 0 0 0 0 0 0 0 0 0 0 0 0 127 0" result="hardAlpha"/>
<feOffset dy="4"/>
<feGaussianBlur stdDeviation="2"/>
<feComposite in2="hardAlpha" operator="out"/>
<feColorMatrix type="matrix" values="0 0 0 0 0 0 0 0 0 0 0 0 0 0 0 0 0 0 0.25 0"/>
<feBlend mode="normal" in2="BackgroundImageFix" result="effect1_dropShadow_1_2"/>
<feBlend mode="normal" in="SourceGraphic" in2="effect1_dropShadow_1_2" result="shape"/>
</filter>
<filter id="filter2_d_1_2" x="1658" y="646" width="35" height="35" filterUnits="userSpaceOnUse" color-interpolation-filters="sRGB">
<feFlood flood-opacity="0" result="BackgroundImageFix"/>
<feColorMatrix in="SourceAlpha" type="matrix" values="0 0 0 0 0 0 0 0 0 0 0 0 0 0 0 0 0 0 127 0" result="hardAlpha"/>
<feOffset dy="4"/>
<feGaussianBlur stdDeviation="2"/>
<feComposite in2="hardAlpha" operator="out"/>
<feColorMatrix type="matrix" values="0 0 0 0 0 0 0 0 0 0 0 0 0 0 0 0 0 0 0.25 0"/>
<feBlend mode="normal" in2="BackgroundImageFix" result="effect1_dropShadow_1_2"/>
<feBlend mode="normal" in="SourceGraphic" in2="effect1_dropShadow_1_2" result="shape"/>
</filter>
<linearGradient id="paint0_linear_1_2" x1="1288.5" y1="553" x2="1289" y2="1083" gradientUnits="userSpaceOnUse">
<stop stop-color="#40C057" stop-opacity="0.52"/>
<stop offset="1" stop-color="#40C057" stop-opacity="0"/>
</linearGradient>
<clipPath id="clip0_1_2">
<rect width="2539" height="1100" fill="white"/>
</clipPath>
</defs>
</svg>
